<?xml version="1.0" encoding="utf-8"?>
<!-- Generator: Adobe Illustrator 19.2.1, SVG Export Plug-In . SVG Version: 6.00 Build 0)  -->
<svg version="1.1" id="Layer_1" xmlns="http://www.w3.org/2000/svg" xmlns:xlink="http://www.w3.org/1999/xlink" x="0px" y="0px"
	 viewBox="0 0 200 100" style="enable-background:new 0 0 200 100;" xml:space="preserve">
<style type="text/css">
	.st0{fill:#0580C1;}
	.st1{fill:#999999;}
</style>
<g>
	<path class="st0" d="M56.7,59.1h3.6l4.1,13.2h-3.2l-0.8-3.1h-4l-0.8,3.1h-3L56.7,59.1z M57,66.8h2.8l-0.3-1.2
		c-0.4-1.3-0.7-2.9-1.1-4.3h-0.1c-0.3,1.4-0.7,2.9-1,4.3L57,66.8z"/>
	<path class="st0" d="M67.7,61.6H64v-2.5h10.3v2.5h-3.6v10.7h-3V61.6z"/>
	<path class="st0" d="M79,67.6l-4-8.5h3.2l1.2,3c0.4,1,0.7,1.9,1.1,2.9h0.1c0.4-1,0.8-1.9,1.1-2.9l1.2-3H86l-4,8.5v4.7h-3V67.6z"/>
	<path class="st0" d="M90.2,59.1h3.6l4.1,13.2h-3.2l-0.8-3.1h-4l-0.8,3.1h-3L90.2,59.1z M90.5,66.8h2.8L93,65.6
		c-0.4-1.3-0.7-2.9-1.1-4.3h-0.1c-0.3,1.4-0.7,2.9-1,4.3L90.5,66.8z"/>
	<path class="st0" d="M100,59.1h3.1l3.5,6.6l1.3,2.9h0.1c-0.1-1.4-0.4-3.3-0.4-4.8v-4.7h2.8v13.2h-3.1l-3.4-6.6l-1.3-2.9h-0.1
		c0.1,1.5,0.4,3.2,0.4,4.8v4.7H100V59.1z"/>
	<path class="st0" d="M116.8,61.6h-3.6v-2.5h10.3v2.5h-3.6v10.7h-3V61.6z"/>
	<path class="st0" d="M126.2,59.1h3v13.2h-3V59.1z"/>
	<path class="st0" d="M133.1,59.1h3v5.4h0.1l3.9-5.4h3.3l-4,5.3l4.7,8h-3.3l-3.2-5.6l-1.5,2v3.6h-3V59.1z"/>
</g>
<g>
	<path class="st1" d="M71.5,78.6h-1.8v-1.2h5v1.2H73v5.3h-1.5V78.6z"/>
	<path class="st1" d="M76.2,77.4h4.1v1.2h-2.6v1.3h2.2v1.2h-2.2v1.5h2.7v1.2h-4.2V77.4z"/>
	<path class="st1" d="M81.7,80.7c0-2.2,1.4-3.4,3.1-3.4c0.8,0,1.5,0.4,2,0.8L85.9,79c-0.3-0.3-0.7-0.5-1.1-0.5
		c-0.9,0-1.6,0.8-1.6,2.1c0,1.3,0.6,2.1,1.6,2.1c0.5,0,0.9-0.3,1.3-0.6l0.8,0.9c-0.5,0.6-1.3,1-2.1,1C83,84,81.7,82.8,81.7,80.7z"/>
	<path class="st1" d="M88.1,77.4h1.5v2.5h2.2v-2.5h1.5v6.5h-1.5v-2.7h-2.2v2.7h-1.5V77.4z"/>
	<path class="st1" d="M95.2,77.4h1.5l1.7,3.2L99,82h0c-0.1-0.7-0.2-1.6-0.2-2.4v-2.3h1.4v6.5h-1.5l-1.7-3.2l-0.6-1.4h0
		c0.1,0.7,0.2,1.6,0.2,2.4v2.3h-1.4V77.4z"/>
	<path class="st1" d="M101.8,80.6c0-2.1,1.2-3.3,2.9-3.3c1.8,0,3,1.2,3,3.3c0,2.1-1.2,3.4-3,3.4C103,84,101.8,82.7,101.8,80.6z
		 M106.2,80.6c0-1.3-0.6-2.1-1.4-2.1c-0.9,0-1.4,0.8-1.4,2.1c0,1.3,0.6,2.1,1.4,2.1C105.7,82.7,106.2,81.9,106.2,80.6z"/>
	<path class="st1" d="M109.3,77.4h1.5v5.3h2.6v1.2h-4V77.4z"/>
	<path class="st1" d="M114.1,80.6c0-2.1,1.2-3.3,2.9-3.3c1.8,0,3,1.2,3,3.3c0,2.1-1.2,3.4-3,3.4C115.3,84,114.1,82.7,114.1,80.6z
		 M118.5,80.6c0-1.3-0.6-2.1-1.4-2.1c-0.9,0-1.4,0.8-1.4,2.1c0,1.3,0.6,2.1,1.4,2.1C118,82.7,118.5,81.9,118.5,80.6z"/>
	<path class="st1" d="M121.3,80.7c0-2.2,1.4-3.4,3.2-3.4c0.9,0,1.6,0.4,2,0.8l-0.8,0.9c-0.3-0.3-0.7-0.5-1.2-0.5
		c-1,0-1.7,0.8-1.7,2.1c0,1.3,0.6,2.1,1.8,2.1c0.3,0,0.5-0.1,0.7-0.2v-1.1h-1.1v-1.2h2.4v3c-0.4,0.4-1.2,0.8-2.1,0.8
		C122.7,84,121.3,82.8,121.3,80.7z"/>
	<path class="st1" d="M128.3,77.4h1.5v6.5h-1.5V77.4z"/>
	<path class="st1" d="M131.6,77.4h4.1v1.2h-2.6v1.3h2.2v1.2h-2.2v1.5h2.7v1.2h-4.2V77.4z"/>
	<path class="st1" d="M137,83.1l0.8-1c0.5,0.4,1.1,0.7,1.6,0.7c0.6,0,0.9-0.2,0.9-0.6c0-0.4-0.4-0.5-0.9-0.8l-0.8-0.4
		c-0.7-0.3-1.3-0.8-1.3-1.8c0-1.1,1-1.9,2.3-1.9c0.7,0,1.5,0.3,2.1,0.9l-0.7,0.9c-0.4-0.3-0.8-0.5-1.3-0.5c-0.5,0-0.8,0.2-0.8,0.6
		c0,0.4,0.4,0.5,1,0.8l0.8,0.3c0.8,0.3,1.3,0.8,1.3,1.8c0,1.1-0.9,2-2.5,2C138.6,84,137.7,83.7,137,83.1z"/>
</g>
<g>
	<path class="st1" d="M99.4,0.9c0,0,0.4,0.2,1.1,0.6c0.7,0.4,1.8,1.1,3.2,1.9c1.3,0.9,3,1.9,4.8,3.2c1.8,1.3,3.9,2.7,6,4.4
		c2.2,1.6,4.5,3.5,6.9,5.5c2.4,2,4.9,4.2,7.4,6.5c1.3,1.2,2.5,2.4,3.8,3.6c0.6,0.6,1.3,1.2,1.9,1.9c0.6,0.6,1.2,1.3,1.9,1.9
		c2.5,2.6,4.9,5.4,7.3,8.2c1.2,1.4,2.3,2.9,3.4,4.3c1.1,1.5,2.2,2.9,3.2,4.4c1,1.5,2.1,2.9,3,4.5c1,1.5,1.9,3,2.8,4.5
		c0.4,0.8,0.9,1.5,1.3,2.2c0.4,0.8,0.8,1.5,1.2,2.3c0.4,0.7,0.8,1.5,1.1,2.2c0.3,0.7,0.7,1.5,1,2.2c0.7,1.4,1.2,2.9,1.8,4.3
		c0.5,1.4,1,2.8,1.4,4.1c0.2,0.7,0.4,1.3,0.6,2c0.2,0.7,0.3,1.3,0.4,1.9c0.3,1.2,0.6,2.4,0.7,3.5c0.1,1.1,0.3,2.2,0.4,3.1
		c0,1,0.1,1.9,0.1,2.7c0,0.4,0,0.8,0,1.1c0,0.4,0,0.7-0.1,1c0,0.6-0.1,1.2-0.1,1.6c-0.1,0.9-0.1,1.3-0.1,1.3s-0.1-0.4-0.3-1.3
		c-0.1-0.4-0.2-0.9-0.3-1.5c-0.1-0.6-0.3-1.3-0.5-2c-0.2-0.7-0.5-1.6-0.7-2.5c-0.3-0.9-0.7-1.8-1-2.9c-0.3-1-0.8-2.1-1.3-3.2
		c-0.2-0.6-0.5-1.1-0.7-1.7c-0.3-0.6-0.6-1.2-0.9-1.7c-0.6-1.2-1.2-2.4-1.9-3.7c-0.7-1.3-1.4-2.6-2.2-3.8c-0.4-0.7-0.8-1.3-1.2-2
		c-0.4-0.7-0.8-1.3-1.3-2c-0.4-0.7-0.9-1.3-1.3-2c-0.5-0.7-0.9-1.3-1.4-2c-1.8-2.7-3.9-5.5-6-8.3c-1-1.4-2.2-2.7-3.2-4.1
		c-1.1-1.4-2.2-2.7-3.4-4.1c-4.5-5.5-9.3-10.8-13.8-15.7c-2.3-2.5-4.5-4.8-6.6-7.1c-2.1-2.2-4.1-4.4-6-6.3
		C104.4,6.1,99.4,0.9,99.4,0.9z"/>
</g>
<g>
	<path class="st0" d="M0.1,54.6c0,0,0.7-0.3,2.1-0.9c1.4-0.6,3.4-1.4,6-2.3c2.6-0.9,5.8-2,9.6-3.1c1.9-0.5,3.8-1.2,5.9-1.7
		c2.1-0.5,4.3-1.1,6.7-1.6c2.3-0.6,4.8-1,7.3-1.6c2.5-0.5,5.1-1,7.8-1.4c2.7-0.4,5.5-0.9,8.3-1.3c2.8-0.5,5.8-0.7,8.7-1
		c5.9-0.8,12.1-1.1,18.4-1.4c3.1-0.2,6.3-0.3,9.5-0.3c3.2,0,6.4-0.1,9.6-0.1c6.4,0.2,12.7,0.4,19,0.7c6.2,0.5,12.4,1.2,18.3,1.7
		c5.9,0.8,11.6,1.8,17,2.6c1.3,0.2,2.7,0.4,4,0.7c1.3,0.3,2.6,0.5,3.8,0.8c2.5,0.6,4.9,1.1,7.3,1.6c4.7,1,8.9,1.9,12.6,3.1
		c3.7,1,7,2,9.6,2.8c2.7,0.8,4.7,1.5,6.2,1.9c1.4,0.5,2.2,0.7,2.2,0.7s-0.8-0.1-2.3-0.3c-1.5-0.2-3.6-0.5-6.4-0.9
		c-2.7-0.4-6.1-0.9-9.8-1.5c-1.9-0.3-3.9-0.7-6.1-0.9c-2.1-0.3-4.4-0.6-6.7-0.8c-2.3-0.3-4.8-0.6-7.3-0.9c-1.3-0.2-2.5-0.3-3.8-0.5
		c-1.3-0.2-2.6-0.3-4-0.4c-5.4-0.5-11-1-16.9-1.6c-5.9-0.3-11.9-0.7-18.1-1.1c-6.2-0.1-12.4-0.4-18.7-0.5c-3.1,0-6.3,0-9.4,0
		c-3.1,0-6.2-0.1-9.3,0.1c-3.1,0.1-6.1,0.2-9.2,0.3c-1.5,0-3,0.1-4.5,0.2c-1.5,0.1-3,0.2-4.4,0.3c-2.9,0.2-5.8,0.3-8.6,0.6
		c-2.8,0.3-5.6,0.5-8.3,0.8c-2.7,0.2-5.3,0.6-7.8,0.9c-2.5,0.3-5,0.5-7.3,0.9c-4.7,0.7-9,1.3-12.7,2c-3.8,0.6-7.1,1.3-9.8,1.8
		c-2.7,0.6-4.8,1-6.3,1.4C0.9,54.4,0.1,54.6,0.1,54.6z"/>
</g>
<g>
	<path class="st1" d="M99.4,0.9c0,0-1.3,1.3-3.6,3.6c-2.3,2.3-5.5,5.5-9.4,9.5c-1.9,2-4,4.1-6.1,6.4c-2.2,2.3-4.4,4.7-6.7,7.2
		c-1.1,1.3-2.3,2.5-3.5,3.8c-1.2,1.3-2.3,2.6-3.5,4c-2.3,2.7-4.7,5.4-6.9,8.3l-1.7,2.1l-1.6,2.1c-1.1,1.4-2.1,2.9-3.2,4.3
		c-0.5,0.7-1,1.4-1.5,2.2c-0.5,0.7-1,1.4-1.5,2.1c-1,1.4-1.9,2.9-2.8,4.3c-0.9,1.4-1.7,2.8-2.6,4.2c-0.8,1.4-1.6,2.8-2.3,4.1
		c-0.7,1.4-1.4,2.7-2.1,4c-0.6,1.3-1.2,2.6-1.8,3.8c-0.5,1.2-1,2.4-1.5,3.6c-0.5,1.1-0.8,2.3-1.2,3.3c-0.2,0.5-0.4,1-0.6,1.5
		c-0.2,0.5-0.3,1-0.4,1.4c-0.3,0.9-0.5,1.8-0.8,2.5c-0.4,1.5-0.7,2.8-0.9,3.6C33.1,93.6,33,94,33,94s0-0.5-0.1-1.3
		c0-0.9-0.1-2.2-0.1-3.8c0-0.8,0.1-1.7,0.2-2.7c0-1,0.2-2.1,0.4-3.2c0.2-1.1,0.3-2.4,0.6-3.6c0.3-1.3,0.6-2.6,0.9-4
		c0.4-1.4,0.8-2.8,1.3-4.2c0.5-1.4,1.1-2.9,1.6-4.4c0.6-1.5,1.3-3,2-4.6c0.7-1.5,1.5-3.1,2.3-4.7c1.7-3.1,3.5-6.2,5.6-9.3
		c1-1.5,2.1-3.1,3.2-4.6l1.7-2.3l1.7-2.2c4.7-5.9,9.8-11.3,14.9-16.1c2.5-2.4,5.1-4.6,7.5-6.7c2.5-2,4.8-3.9,7.1-5.6
		C86,9.2,88.1,7.8,90,6.5c1.9-1.3,3.6-2.3,4.9-3.1c1.4-0.8,2.5-1.5,3.3-1.9C99,1.1,99.4,0.9,99.4,0.9z"/>
</g>
</svg>
