<svg id="Layer_1" data-name="Layer 1" xmlns="http://www.w3.org/2000/svg" viewBox="0 0 495.37 85.6"><title>logo-2</title><path d="M91.47,3h24.32v2.7H94.58V22.53h17.83v2.7H94.58V44.82h21.89v2.7h-25Z" transform="translate(-2.69 -2.17)" style="fill:#0071ba"/><path d="M121.13,3h3.31l8.24,26c1.69,5.4,2.84,9.52,4.66,14.93h.27c1.82-5.4,3-9.52,4.73-14.93l8.24-26h3.11L139.16,47.53h-3.38Z" transform="translate(-2.69 -2.17)" style="fill:#0071ba"/><path d="M161,3h24.32v2.7H164.06V22.53H181.9v2.7H164.06V44.82h21.89v2.7H161V3Z" transform="translate(-2.69 -2.17)" style="fill:#0071ba"/><path d="M190.89,3h3.24l18.71,31.41,5.07,8.85h.27c-.2-4.32-.4-8.65-.4-13V3h2.9V47.53h-3.24L198.72,16.11l-5.06-8.85h-.27c.2,4.26.41,8.31.41,12.63V47.53h-2.9V3Z" transform="translate(-2.69 -2.17)" style="fill:#0071ba"/><path d="M242.78,5.71H228.6V3H260v2.7H245.89V47.53h-3.11V5.71Z" transform="translate(-2.69 -2.17)" style="fill:#0071ba"/><path d="M266.59,3h24.32v2.7H269.7V22.53h17.83v2.7H269.7V44.82h21.89v2.7h-25Z" transform="translate(-2.69 -2.17)" style="fill:#0071ba"/><path d="M323.29,47.53l-12-20.47h-9.46V47.53H298.7V3h12.7c8.85,0,14.66,3.24,14.66,11.75,0,7.09-4.46,11.15-11.42,12.09l12.23,20.67Zm-12.7-23c7.9,0,12.23-3.17,12.23-9.73s-4.32-9.12-12.23-9.12h-8.78V24.49h8.78Z" transform="translate(-2.69 -2.17)" style="fill:#0071ba"/><path d="M334.47,3h12.16c9.93,0,15.81,3.24,15.81,12.43,0,8.71-5.95,13-15.81,13h-9.05V47.53h-3.11Zm11.35,22.76c9.12,0,13.44-3,13.44-10.34,0-7.5-4.39-9.8-13.44-9.8h-8.24V25.77Z" transform="translate(-2.69 -2.17)" style="fill:#0071ba"/><path d="M394.14,47.53l-12-20.47h-9.46V47.53h-3.11V3h12.7c8.85,0,14.66,3.24,14.66,11.75,0,7.09-4.46,11.15-11.42,12.09l12.23,20.67Zm-12.7-23c7.9,0,12.23-3.17,12.23-9.73s-4.32-9.12-12.23-9.12h-8.78V24.49h8.78Z" transform="translate(-2.69 -2.17)" style="fill:#0071ba"/><path d="M404.09,3h3.11V47.53h-3.11Z" transform="translate(-2.69 -2.17)" style="fill:#0071ba"/><path d="M417.33,39.49a17.54,17.54,0,0,0,13.11,6c6.76,0,11.08-3.65,11.08-8.92,0-5.54-3.65-7.36-8-9.32l-6.76-3c-3.85-1.69-9-4.46-9-11.08,0-6.42,5.54-10.94,12.9-10.94a17,17,0,0,1,12.43,5.34l-1.83,2.09A14.11,14.11,0,0,0,430.64,5c-5.88,0-9.8,3.11-9.8,8,0,5.13,4.46,7.09,7.7,8.58l6.75,3c4.93,2.23,9.32,5,9.32,11.82s-5.61,12-14.25,12a19.62,19.62,0,0,1-15-6.69Z" transform="translate(-2.69 -2.17)" style="fill:#0071ba"/><path d="M451.93,3h24.32v2.7H455V22.53h17.84v2.7H455V44.82h21.89v2.7h-25Z" transform="translate(-2.69 -2.17)" style="fill:#0071ba"/><path d="M25.64,43.53c-1.19,0-23,2.26-23-33.87,0,0-.13-5.44,8.54-5.44s22.84,0,29.84,7,9.36,15,12.15,24H55V2.18h6.53s8.69-.68,8.69,8.5V78.94s.09,8.82-8.5,8.82H57.28V52.6H55S50.67,80.21,25.51,84.87a117.4,117.4,0,0,1-16.62.9s-6.2.48-6.2-7.12.88-32.95,23-32.95C25.68,45.71,25.65,44,25.64,43.53Z" transform="translate(-2.69 -2.17)" style="fill:#0071ba"/><path d="M482.14,4h-3V3h7.17V4h-3v8.73h-1.24Z" transform="translate(-2.69 -2.17)" style="fill:#0071ba"/><path d="M489.9,3h1.48l1.89,5.25.7,2H494l.69-2L496.59,3h1.46v9.78h-1.18V7.36c0-.86.1-2,.16-2.89H497l-.77,2.18-1.88,5.11h-.71l-1.88-5.11L491,4.47h-.06c.06.86.15,2,.15,2.89v5.38H489.9Z" transform="translate(-2.69 -2.17)" style="fill:#0071ba"/><path d="M91.82,78.46a11.11,11.11,0,0,1,.57-3.69A8.21,8.21,0,0,1,94,72a6.89,6.89,0,0,1,2.41-1.75,7.44,7.44,0,0,1,3-.61,5.62,5.62,0,0,1,2.73.64,7.24,7.24,0,0,1,1.92,1.47l-1.22,1.38A5.58,5.58,0,0,0,101.35,72a4.07,4.07,0,0,0-1.91-.43,5,5,0,0,0-2.21.48,4.79,4.79,0,0,0-1.69,1.38,6.61,6.61,0,0,0-1.09,2.17,9.75,9.75,0,0,0-.39,2.86,10.34,10.34,0,0,0,.38,2.9,6.94,6.94,0,0,0,1.05,2.2,4.66,4.66,0,0,0,1.65,1.4,4.77,4.77,0,0,0,2.19.49,4.53,4.53,0,0,0,2.17-.49,6.65,6.65,0,0,0,1.76-1.4l1.22,1.33a7.58,7.58,0,0,1-2.29,1.82,6.31,6.31,0,0,1-2.91.65,7.34,7.34,0,0,1-3-.6A6.71,6.71,0,0,1,93.94,85a8,8,0,0,1-1.56-2.78A11.58,11.58,0,0,1,91.82,78.46Z" transform="translate(-2.69 -2.17)" style="fill:#0071ba"/><path d="M113.19,87.3a6.9,6.9,0,0,1-3-.62,6.59,6.59,0,0,1-2.3-1.78,8.35,8.35,0,0,1-1.49-2.81,12,12,0,0,1-.53-3.7,11.78,11.78,0,0,1,.53-3.68A8.1,8.1,0,0,1,107.94,72a6.44,6.44,0,0,1,2.3-1.73,7.15,7.15,0,0,1,3-.6,7,7,0,0,1,2.95.61A6.68,6.68,0,0,1,118.45,72,8,8,0,0,1,120,74.73a11.66,11.66,0,0,1,.53,3.65,12,12,0,0,1-.53,3.7,8.18,8.18,0,0,1-1.51,2.81,6.71,6.71,0,0,1-2.31,1.78A6.89,6.89,0,0,1,113.19,87.3Zm0-1.9a4.31,4.31,0,0,0,2.07-.49,4.63,4.63,0,0,0,1.59-1.42,7.1,7.1,0,0,0,1-2.21,10.68,10.68,0,0,0,.36-2.9,10.43,10.43,0,0,0-.36-2.86,6.62,6.62,0,0,0-1-2.16A4.67,4.67,0,0,0,115.25,72a4.68,4.68,0,0,0-4.13,0,4.67,4.67,0,0,0-1.59,1.36,6.57,6.57,0,0,0-1,2.16,10.43,10.43,0,0,0-.36,2.86,10.67,10.67,0,0,0,.36,2.9,7,7,0,0,0,1,2.21,4.65,4.65,0,0,0,1.59,1.42A4.29,4.29,0,0,0,113.19,85.4Z" transform="translate(-2.69 -2.17)" style="fill:#0071ba"/><path d="M124.16,69.94h2.24l6.16,10.71,1.85,3.54h.1c-.05-.87-.11-1.76-.17-2.69s-.09-1.84-.09-2.74V69.94h2.05V87h-2.23l-6.19-10.74L126,72.74h-.1c.07.87.14,1.75.19,2.64s.09,1.79.09,2.69V87h-2.05V69.94Z" transform="translate(-2.69 -2.17)" style="fill:#0071ba"/><path d="M141,69.94h2.24l6.16,10.71,1.85,3.54h.1c-.05-.87-.11-1.76-.17-2.69s-.09-1.84-.09-2.74V69.94h2.05V87h-2.23l-6.19-10.74-1.85-3.51h-.1c.07.87.13,1.75.2,2.64s.09,1.79.09,2.69V87H141V69.94Z" transform="translate(-2.69 -2.17)" style="fill:#0071ba"/><path d="M157.79,69.94h9.83v1.82H160v5.36h6.47V79H160v6.19h7.93V87H157.79Z" transform="translate(-2.69 -2.17)" style="fill:#0071ba"/><path d="M170.5,78.46a11.11,11.11,0,0,1,.57-3.69A8.21,8.21,0,0,1,172.66,72a6.89,6.89,0,0,1,2.41-1.75,7.44,7.44,0,0,1,3-.61,5.62,5.62,0,0,1,2.73.64,7.24,7.24,0,0,1,1.92,1.47l-1.22,1.38A5.58,5.58,0,0,0,180,72a4.07,4.07,0,0,0-1.91-.43,5,5,0,0,0-2.21.48,4.79,4.79,0,0,0-1.69,1.38,6.61,6.61,0,0,0-1.09,2.17,9.75,9.75,0,0,0-.39,2.86,10.34,10.34,0,0,0,.38,2.9,6.94,6.94,0,0,0,1.05,2.2,4.66,4.66,0,0,0,1.65,1.4,4.77,4.77,0,0,0,2.2.49,4.53,4.53,0,0,0,2.17-.49,6.65,6.65,0,0,0,1.76-1.4l1.22,1.33a7.58,7.58,0,0,1-2.29,1.82,6.31,6.31,0,0,1-2.91.65,7.34,7.34,0,0,1-3-.6A6.71,6.71,0,0,1,172.62,85a8,8,0,0,1-1.56-2.78A11.58,11.58,0,0,1,170.5,78.46Z" transform="translate(-2.69 -2.17)" style="fill:#0071ba"/><path d="M189.4,71.76h-5.15V69.94h12.48v1.82h-5.15V87H189.4V71.76Z" transform="translate(-2.69 -2.17)" style="fill:#0071ba"/><path d="M199.8,69.94H202V87H199.8Z" transform="translate(-2.69 -2.17)" style="fill:#0071ba"/><path d="M206.64,69.94h2.23L215,80.65l1.85,3.54h.1q-.08-1.3-.17-2.69t-.09-2.74V69.94h2.05V87h-2.24l-6.19-10.74-1.85-3.51h-.1q.1,1.3.19,2.64t.09,2.69V87h-2.05V69.94Z" transform="translate(-2.69 -2.17)" style="fill:#0071ba"/><path d="M222.46,78.46a10.9,10.9,0,0,1,.59-3.69A8,8,0,0,1,224.69,72a7.16,7.16,0,0,1,2.48-1.75,7.93,7.93,0,0,1,3.15-.61,6,6,0,0,1,2.95.66,8.4,8.4,0,0,1,1.94,1.44L234,73.11A6,6,0,0,0,232.49,72a4.49,4.49,0,0,0-2.15-.46A5.52,5.52,0,0,0,228,72a4.9,4.9,0,0,0-1.77,1.38,6.58,6.58,0,0,0-1.13,2.17,9.48,9.48,0,0,0-.4,2.86,10.27,10.27,0,0,0,.38,2.9,6.41,6.41,0,0,0,1.09,2.2,4.82,4.82,0,0,0,1.77,1.4,5.65,5.65,0,0,0,2.43.49,5.43,5.43,0,0,0,1.73-.27,3.75,3.75,0,0,0,1.34-.74V79.94h-3.61V78.15h5.59v7.17a6.39,6.39,0,0,1-2.2,1.42,8.06,8.06,0,0,1-3.08.56,7.83,7.83,0,0,1-3.09-.6A6.76,6.76,0,0,1,224.62,85,8.06,8.06,0,0,1,223,82.19,11.35,11.35,0,0,1,222.46,78.46Z" transform="translate(-2.69 -2.17)" style="fill:#0071ba"/><path d="M248.28,71.76h-5.15V69.94h12.48v1.82h-5.15V87h-2.18V71.76Z" transform="translate(-2.69 -2.17)" style="fill:#0071ba"/><path d="M258.68,69.94h2.16v7.15h7.93V69.94h2.18V87h-2.18V79h-7.93v8h-2.16Z" transform="translate(-2.69 -2.17)" style="fill:#0071ba"/><path d="M275.62,69.94h9.83v1.82h-7.67v5.36h6.47V79h-6.47v6.19h7.93V87H275.62Z" transform="translate(-2.69 -2.17)" style="fill:#0071ba"/><path d="M292.83,69.94h2.23l1.8,9.28q.23,1.4.49,2.75t.49,2.75h.1q.28-1.4.6-2.77t.6-2.74l2.36-9.28h2l2.36,9.28q.31,1.35.62,2.73t.63,2.78h.1q.23-1.4.47-2.77t.49-2.74l1.8-9.28H312L308.51,87h-2.6l-2.57-10.27q-.23-1-.43-1.94t-.4-1.94h-.1c-.14.66-.28,1.3-.43,1.94s-.29,1.28-.43,1.94L299,87h-2.57Z" transform="translate(-2.69 -2.17)" style="fill:#0071ba"/><path d="M321.14,87.3a6.89,6.89,0,0,1-2.95-.62,6.57,6.57,0,0,1-2.3-1.78,8.31,8.31,0,0,1-1.49-2.81,12,12,0,0,1-.53-3.7,11.78,11.78,0,0,1,.53-3.68A8.09,8.09,0,0,1,315.89,72a6.42,6.42,0,0,1,2.3-1.73,7.14,7.14,0,0,1,2.95-.6,7,7,0,0,1,3,.61A6.67,6.67,0,0,1,326.4,72a8,8,0,0,1,1.51,2.75,11.66,11.66,0,0,1,.53,3.65,12,12,0,0,1-.53,3.7,8.18,8.18,0,0,1-1.51,2.81,6.68,6.68,0,0,1-2.31,1.78A6.9,6.9,0,0,1,321.14,87.3Zm0-1.9a4.31,4.31,0,0,0,2.07-.49,4.63,4.63,0,0,0,1.59-1.42,7,7,0,0,0,1-2.21,10.68,10.68,0,0,0,.36-2.9,10.43,10.43,0,0,0-.36-2.86,6.54,6.54,0,0,0-1-2.16A4.67,4.67,0,0,0,323.21,72a4.68,4.68,0,0,0-4.13,0,4.69,4.69,0,0,0-1.59,1.36,6.57,6.57,0,0,0-1,2.16,10.35,10.35,0,0,0-.36,2.86,10.59,10.59,0,0,0,.36,2.9,7,7,0,0,0,1,2.21,4.67,4.67,0,0,0,1.59,1.42A4.3,4.3,0,0,0,321.14,85.4Z" transform="translate(-2.69 -2.17)" style="fill:#0071ba"/><path d="M341.47,87l-4.11-7.2h-3.09V87h-2.16V69.94h5.33a11,11,0,0,1,2.4.25,5.11,5.11,0,0,1,1.9.82A3.9,3.9,0,0,1,343,72.49a5.09,5.09,0,0,1,.44,2.24,4.71,4.71,0,0,1-1,3.2,5.31,5.31,0,0,1-2.78,1.64L343.91,87Zm-7.2-9h2.86a5,5,0,0,0,3.07-.82,2.93,2.93,0,0,0,1.06-2.48,2.58,2.58,0,0,0-1.06-2.36,5.75,5.75,0,0,0-3.07-.68h-2.86Z" transform="translate(-2.69 -2.17)" style="fill:#0071ba"/><path d="M347.21,69.94h2.16V85.15h7.46V87h-9.62Z" transform="translate(-2.69 -2.17)" style="fill:#0071ba"/><path d="M359.84,69.94h4.26a7.85,7.85,0,0,1,6,2.18,8.81,8.81,0,0,1,2.05,6.26,11.69,11.69,0,0,1-.52,3.63,7.25,7.25,0,0,1-1.53,2.7,6.62,6.62,0,0,1-2.5,1.69,9.21,9.21,0,0,1-3.4.58h-4.37V69.94ZM364,85.22a5.51,5.51,0,0,0,4.48-1.79,7.66,7.66,0,0,0,1.49-5,7.35,7.35,0,0,0-1.49-5A5.63,5.63,0,0,0,364,71.71H362V85.22Z" transform="translate(-2.69 -2.17)" style="fill:#0071ba"/><path d="M387.37,87.3a6.89,6.89,0,0,1-2.95-.62,6.57,6.57,0,0,1-2.3-1.78,8.31,8.31,0,0,1-1.49-2.81,12,12,0,0,1-.53-3.7,11.78,11.78,0,0,1,.53-3.68A8.09,8.09,0,0,1,382.12,72a6.42,6.42,0,0,1,2.3-1.73,7.14,7.14,0,0,1,2.95-.6,7,7,0,0,1,3,.61A6.67,6.67,0,0,1,392.63,72a8,8,0,0,1,1.51,2.75,11.66,11.66,0,0,1,.53,3.65,12,12,0,0,1-.53,3.7,8.18,8.18,0,0,1-1.51,2.81,6.68,6.68,0,0,1-2.31,1.78A6.9,6.9,0,0,1,387.37,87.3Zm0-1.9a4.31,4.31,0,0,0,2.07-.49A4.63,4.63,0,0,0,391,83.49a7,7,0,0,0,1-2.21,10.68,10.68,0,0,0,.36-2.9,10.43,10.43,0,0,0-.36-2.86,6.54,6.54,0,0,0-1-2.16A4.67,4.67,0,0,0,389.44,72a4.68,4.68,0,0,0-4.13,0,4.69,4.69,0,0,0-1.59,1.36,6.57,6.57,0,0,0-1,2.16,10.35,10.35,0,0,0-.36,2.86,10.59,10.59,0,0,0,.36,2.9,7,7,0,0,0,1,2.21,4.67,4.67,0,0,0,1.59,1.42A4.3,4.3,0,0,0,387.37,85.4Z" transform="translate(-2.69 -2.17)" style="fill:#0071ba"/><path d="M398.34,69.94h9.82v1.82H400.5v5.77H407v1.82h-6.5V87h-2.16Z" transform="translate(-2.69 -2.17)" style="fill:#0071ba"/><path d="M416.43,69.94h9.82v1.82h-7.67v5.36h6.47V79h-6.47v6.19h7.93V87H416.43Z" transform="translate(-2.69 -2.17)" style="fill:#0071ba"/><path d="M427.79,69.94h2.31l2.73,9.2q.47,1.53.82,2.83t.85,2.81h.1q.47-1.51.83-2.81t.81-2.83l2.73-9.2h2.21L435.77,87h-2.52Z" transform="translate(-2.69 -2.17)" style="fill:#0071ba"/><path d="M443.52,69.94h9.82v1.82h-7.67v5.36h6.47V79h-6.47v6.19h7.93V87H443.52Z" transform="translate(-2.69 -2.17)" style="fill:#0071ba"/><path d="M457.22,69.94h2.24l6.16,10.71,1.85,3.54h.1c-.05-.87-.11-1.76-.17-2.69s-.09-1.84-.09-2.74V69.94h2.05V87h-2.23l-6.19-10.74-1.85-3.51H459c.07.87.14,1.75.2,2.64s.09,1.79.09,2.69V87h-2.05V69.94Z" transform="translate(-2.69 -2.17)" style="fill:#0071ba"/><path d="M477.57,71.76h-5.15V69.94H484.9v1.82h-5.15V87h-2.18Z" transform="translate(-2.69 -2.17)" style="fill:#0071ba"/><path d="M487,83.27a7.06,7.06,0,0,0,2.14,1.55,5.91,5.91,0,0,0,2.56.58,4,4,0,0,0,2.63-.77,2.48,2.48,0,0,0,.94-2,2.51,2.51,0,0,0-.22-1.1,2.44,2.44,0,0,0-.6-.78,4.36,4.36,0,0,0-.9-.58l-1.12-.55L490,78.54a11.58,11.58,0,0,1-1.22-.62,5,5,0,0,1-1.12-.88,4.23,4.23,0,0,1-.8-1.23,4.34,4.34,0,0,1,.09-3.44,4.44,4.44,0,0,1,1.12-1.44,5.2,5.2,0,0,1,1.69-.95,6.52,6.52,0,0,1,2.14-.34,6.82,6.82,0,0,1,2.83.58,7.12,7.12,0,0,1,2.21,1.52l-1.17,1.4A6.09,6.09,0,0,0,494,72a5.15,5.15,0,0,0-2.14-.43,3.7,3.7,0,0,0-2.3.66,2.18,2.18,0,0,0-.87,1.83,2.07,2.07,0,0,0,.25,1.05,2.58,2.58,0,0,0,.66.75,5.34,5.34,0,0,0,.91.57q.49.25,1,.46l2.42,1a10.41,10.41,0,0,1,1.38.71,4.93,4.93,0,0,1,1.12.94,4.07,4.07,0,0,1,.74,1.25,4.61,4.61,0,0,1,.27,1.65,4.54,4.54,0,0,1-.4,1.9,4.59,4.59,0,0,1-1.16,1.55,5.5,5.5,0,0,1-1.82,1,7.23,7.23,0,0,1-2.42.38,8.18,8.18,0,0,1-6-2.52Z" transform="translate(-2.69 -2.17)" style="fill:#0071ba"/><rect x="88.78" y="56.67" width="406.21" height="1" style="fill:#0071ba"/></svg>